<svg style="stroke:rgb(0,0,0);stroke-width:12px;fill:none;" width="268px" height="163px" xmlns="http://www.w3.org/2000/svg" xmlns:saulo="http://saulo.io"><path d="M5.657,97.298c22.238,2.792 33.947,-3.742 35.147,-15.808c1.184,-11.904 4.748,-51.479 10.592,-51.479c10.59,0 15.155,112.777 22.417,112.777c8.495,0 17.85,-132.515 23.797,-132.515c8.396,0 16.072,147.05 24.147,147.05c8.074,0 15.725,-151.666 23.8,-151.666c8.074,0 15.75,147.05 24.147,147.05c5.947,0 15.302,-132.515 23.797,-132.515c7.261,0 11.826,112.777 22.416,112.777c5.845,0 9.409,-39.575 10.593,-51.479c1.199,-12.065 12.909,-18.599 35.147,-15.808"/></svg>