<svg style="fill:rgb(132,132,142)" width="1024px" height="1024px" xmlns="http://www.w3.org/2000/svg" ><path d="M512,0c282.58,0 512,229.42 512,512c0,282.58 -229.42,512 -512,512c-282.58,0 -512,-229.42 -512,-512c0,-282.58 229.42,-512 512,-512Zm144.102,872.198l0,-56.693c-23.192,-1.384 -38.768,-6.836 -46.73,-16.355c-7.961,-9.519 -11.941,-31.412 -11.941,-65.68l0,-313.607l-229.533,37l0,60.08c22.846,1.384 38.249,6.836 46.21,16.355c7.962,9.519 11.943,31.412 11.943,65.681l0,134.491c0,34.268 -3.462,55.383 -10.385,63.344c-10.384,11.769 -26.307,17.999 -47.768,18.691l0,56.693l288.204,0Zm-144.677,-720.396c-25.668,0.001 -47.526,9.125 -65.573,27.373c-18.048,18.247 -27.071,40.205 -27.071,65.872c0,25.668 9.023,47.525 27.071,65.573c18.047,18.047 39.905,27.07 65.573,27.07c25.667,0 47.624,-9.023 65.872,-27.07c18.248,-18.048 27.372,-39.905 27.372,-65.573c0,-25.667 -9.023,-47.625 -27.07,-65.872c-18.048,-18.248 -40.106,-27.373 -66.174,-27.373Z"/></svg>