<?xml version="1.0" encoding="UTF-8" standalone="no"?>
<!DOCTYPE svg PUBLIC "-//W3C//DTD SVG 1.1//EN" "http://www.w3.org/Graphics/SVG/1.1/DTD/svg11.dtd">
<svg width="320px" height="320px" version="1.1" xmlns="http://www.w3.org/2000/svg" xmlns:xlink="http://www.w3.org/1999/xlink" xml:space="preserve" xmlns:serif="http://www.serif.com/" style="fill-rule:evenodd;clip-rule:evenodd;stroke-linecap:round;stroke-linejoin:round;stroke-miterlimit:1.5;">
    <path d="M50.373,268.866c-22.266,-22.265 -14.539,-66.145 17.242,-97.927c31.782,-31.782 75.662,-39.508 97.928,-17.242c22.265,22.265 14.539,66.145 -17.243,97.927c-31.782,31.782 -75.662,39.508 -97.927,17.242Z" style="fill:none;stroke:url(#_Linear1);stroke-width:18px;"/>
    <path d="M308.853,199.607c-8.149,30.415 -50.013,45.664 -93.428,34.031c-43.415,-11.633 -72.046,-45.771 -63.896,-76.186c8.149,-30.416 50.013,-45.664 93.428,-34.031c43.415,11.632 72.046,45.77 63.896,76.186Z" style="fill:none;stroke:url(#_Linear2);stroke-width:18px;"/>
    <path d="M119.633,10.386c30.415,-8.15 64.553,20.481 76.186,63.896c11.633,43.415 -3.616,85.279 -34.031,93.429c-30.416,8.149 -64.554,-20.482 -76.187,-63.897c-11.633,-43.414 3.616,-85.278 34.032,-93.428Z" style="fill:none;stroke:url(#_Linear3);stroke-width:18px;"/>
    <path d="M233.638,215.425c11.633,43.415 -3.616,85.279 -34.031,93.428c-30.416,8.15 -64.554,-20.481 -76.186,-63.896" style="fill:none;stroke:url(#_Linear4);stroke-width:18px;stroke-linecap:butt;"/>
    <path d="M101.299,234.318c-2.659,-9.924 3.239,-20.139 13.162,-22.798c9.923,-2.659 20.139,3.239 22.798,13.162c2.659,9.924 -3.239,20.139 -13.163,22.798c-9.923,2.659 -20.138,-3.239 -22.797,-13.162Z" style="fill:none;stroke:rgb(62,140,176);stroke-width:18px;"/>
    <path d="M170.939,67.615c31.782,-31.781 75.662,-39.508 97.927,-17.242c22.266,22.265 14.54,66.145 -17.242,97.927" style="fill:none;stroke:url(#_Linear5);stroke-width:18px;stroke-linecap:butt;"/>
    <path d="M253.471,172.778c-7.265,7.264 -19.061,7.264 -26.325,0c-7.264,-7.265 -7.264,-19.06 0,-26.325c7.264,-7.264 19.06,-7.264 26.325,0c7.264,7.265 7.264,19.06 0,26.325Z" style="fill:none;stroke:rgb(62,140,176);stroke-width:18px;"/>
    <path d="M74.282,195.819c-43.415,-11.633 -72.046,-45.771 -63.896,-76.186c8.15,-30.416 50.014,-45.665 93.428,-34.032" style="fill:none;stroke:url(#_Linear6);stroke-width:18px;stroke-linecap:butt;"/>
    <path d="M124.089,71.763c9.924,2.659 15.822,12.874 13.163,22.798c-2.659,9.923 -12.875,15.821 -22.798,13.162c-9.924,-2.659 -15.821,-12.874 -13.162,-22.798c2.659,-9.923 12.874,-15.821 22.797,-13.162Z" style="fill:none;stroke:rgb(62,140,176);stroke-width:18px;"/>
    <defs>
        <linearGradient id="_Linear1" x1="0" y1="0" x2="1" y2="0" gradientUnits="userSpaceOnUse" gradientTransform="matrix(-54.6703,-17.816,17.816,-54.6703,118.356,255.243)"><stop offset="0" style="stop-color:rgb(95,183,227);stop-opacity:0"/><stop offset="1" style="stop-color:rgb(95,183,227);stop-opacity:1"/></linearGradient>
        <linearGradient id="_Linear2" x1="0" y1="0" x2="1" y2="0" gradientUnits="userSpaceOnUse" gradientTransform="matrix(11.906,56.2539,-56.2539,11.906,263.064,147.543)"><stop offset="0" style="stop-color:rgb(95,183,227);stop-opacity:0"/><stop offset="1" style="stop-color:rgb(95,183,227);stop-opacity:1"/></linearGradient>
        <linearGradient id="_Linear3" x1="0" y1="0" x2="1" y2="0" gradientUnits="userSpaceOnUse" gradientTransform="matrix(42.7643,-38.4379,38.4379,42.7643,97.4388,76.0723)"><stop offset="0" style="stop-color:rgb(95,183,227);stop-opacity:0"/><stop offset="1" style="stop-color:rgb(95,183,227);stop-opacity:1"/></linearGradient>
        <linearGradient id="_Linear4" x1="0" y1="0" x2="1" y2="0" gradientUnits="userSpaceOnUse" gradientTransform="matrix(-42.7643,38.4379,-38.4379,-42.7643,221.8,243.167)"><stop offset="0" style="stop-color:rgb(62,140,176);stop-opacity:0"/><stop offset="1" style="stop-color:rgb(62,140,176);stop-opacity:1"/></linearGradient>
        <linearGradient id="_Linear5" x1="0" y1="0" x2="1" y2="0" gradientUnits="userSpaceOnUse" gradientTransform="matrix(54.6703,17.816,-17.816,54.6703,200.883,63.9958)"><stop offset="0" style="stop-color:rgb(62,140,176);stop-opacity:0"/><stop offset="1" style="stop-color:rgb(62,140,176);stop-opacity:1"/></linearGradient>
        <linearGradient id="_Linear6" x1="0" y1="0" x2="1" y2="0" gradientUnits="userSpaceOnUse" gradientTransform="matrix(-11.906,-56.2539,56.2539,-11.906,56.1752,171.696)"><stop offset="0" style="stop-color:rgb(62,140,176);stop-opacity:0"/><stop offset="1" style="stop-color:rgb(62,140,176);stop-opacity:1"/></linearGradient>
    </defs>
</svg>
