<?xml version="1.0" standalone="no"?>
<!DOCTYPE svg PUBLIC "-//W3C//DTD SVG 20010904//EN"
 "http://www.w3.org/TR/2001/REC-SVG-20010904/DTD/svg10.dtd">
<svg version="1.0" xmlns="http://www.w3.org/2000/svg"
 width="260.000000pt" height="260.000000pt" viewBox="0 0 260.000000 260.000000"
 preserveAspectRatio="xMidYMid meet">
<metadata>
Created by potrace 1.11, written by Peter Selinger 2001-2013
</metadata>
<g transform="translate(0.000000,260.000000) scale(0.100000,-0.100000)"
fill="#000000" stroke="none">
<path d="M733 2452 c-132 -47 -221 -157 -246 -302 -6 -33 -4 -37 46 -73 l52
-37 11 63 c16 82 34 125 74 171 51 58 102 80 185 79 253 -2 509 -287 576 -641
11 -59 8 -192 -7 -268 -5 -28 -1 -34 37 -62 23 -17 45 -29 49 -27 20 13 43
136 43 230 -1 262 -103 507 -288 688 -125 124 -255 187 -395 194 -65 3 -97 -1
-137 -15z"/>
<path d="M1635 2457 c-80 -27 -85 -32 -85 -92 0 -30 1 -55 3 -55 1 0 30 9 62
21 170 59 314 0 370 -153 16 -41 20 -76 19 -158 -1 -117 -29 -223 -87 -333
l-31 -59 -39 6 c-114 19 -218 -68 -219 -184 0 -101 69 -180 166 -188 30 -2 66
-2 80 2 33 8 93 61 113 99 19 38 21 113 4 155 -13 30 -11 37 27 110 23 43 54
117 69 163 24 76 27 99 28 229 0 132 -2 151 -25 208 -37 92 -94 161 -170 201
-56 30 -74 34 -154 37 -58 3 -106 -1 -131 -9z m234 -962 c20 -20 18 -71 -4
-95 -22 -24 -71 -26 -97 -3 -18 16 -24 68 -10 89 23 34 80 39 111 9z"/>
<path d="M831 1835 c-18 -8 -48 -31 -66 -51 -32 -34 -35 -35 -121 -40 -283
-14 -527 -146 -611 -331 -38 -83 -39 -204 -2 -283 29 -61 85 -133 131 -167
l30 -22 53 26 52 26 -72 71 c-57 56 -76 83 -90 125 -33 101 -8 189 81 275 92
90 236 146 414 161 l85 7 13 -35 c18 -50 48 -85 93 -107 140 -72 307 57 269
209 -15 61 -50 104 -103 130 -50 24 -108 26 -156 6z m126 -127 c18 -15 16 -78
-4 -100 -20 -22 -70 -23 -95 -1 -33 29 -19 101 22 116 19 7 61 -1 77 -15z"/>
<path d="M2365 1558 c-27 -12 -52 -23 -54 -24 -2 -2 12 -16 30 -31 100 -83
144 -163 137 -251 -2 -32 -12 -74 -22 -94 -42 -87 -174 -183 -306 -222 -131
-39 -314 -39 -465 -1 -84 21 -232 96 -288 145 l-47 42 -45 -18 c-25 -9 -48
-21 -51 -26 -12 -19 119 -133 201 -175 310 -158 677 -150 935 22 85 57 133
110 174 195 26 56 31 76 31 146 0 73 -3 87 -37 156 -34 67 -112 159 -135 158
-5 -1 -30 -10 -58 -22z"/>
<path d="M1060 1426 c-114 -33 -230 -106 -339 -215 -179 -179 -267 -369 -278
-597 -8 -179 25 -288 114 -380 87 -90 238 -127 366 -90 64 19 73 30 79 102 l5
51 -61 -24 c-75 -30 -171 -33 -234 -8 -23 10 -60 37 -81 62 -185 209 -33 684
289 903 60 40 131 74 178 85 31 6 42 31 42 96 0 33 -9 35 -80 15z"/>
<path d="M1091 932 c-57 -28 -94 -83 -99 -146 -6 -71 11 -117 58 -160 34 -30
91 -56 126 -56 7 0 31 -33 55 -72 55 -94 193 -232 284 -285 105 -61 164 -78
275 -78 84 0 102 3 152 28 108 53 193 176 205 299 l5 46 -48 31 -49 30 -11
-62 c-23 -120 -64 -188 -143 -230 -159 -87 -407 32 -561 269 l-42 63 26 33
c37 49 51 113 37 166 -14 51 -64 110 -108 128 -45 19 -121 17 -162 -4z m125
-110 c42 -27 38 -94 -7 -117 -67 -35 -133 51 -82 107 16 18 68 24 89 10z"/>
</g>
</svg>
