<?xml version="1.0" standalone="no"?>
<!DOCTYPE svg PUBLIC "-//W3C//DTD SVG 20010904//EN"
 "http://www.w3.org/TR/2001/REC-SVG-20010904/DTD/svg10.dtd">
<svg version="1.0" xmlns="http://www.w3.org/2000/svg"
 width="1280.000000pt" height="1280.000000pt" viewBox="0 0 1280.000000 1280.000000"
 preserveAspectRatio="xMidYMid meet">
<metadata>
Created by potrace 1.11, written by Peter Selinger 2001-2013
</metadata>
<g transform="translate(0.000000,1280.000000) scale(0.100000,-0.100000)"
fill="#000000" stroke="none">
<path d="M4947 12785 c-606 -83 -1137 -442 -1503 -1017 -115 -180 -297 -572
-295 -636 1 -39 5 -51 14 -45 10 6 78 -68 71 -78 -2 -4 4 -6 14 -5 11 0 18 -7
20 -22 2 -13 8 -20 14 -16 7 5 9 1 5 -9 -3 -9 -1 -19 5 -23 7 -5 8 -2 3 6 -5
9 -4 11 3 6 7 -4 12 -14 12 -22 0 -8 5 -12 10 -9 6 3 10 -1 10 -10 0 -9 9 -19
20 -22 11 -3 17 -9 14 -14 -3 -5 2 -9 10 -9 14 0 20 -12 17 -32 0 -5 4 -8 10
-8 16 0 49 -39 50 -59 0 -9 3 -11 5 -4 8 18 34 4 27 -14 -4 -11 -2 -14 5 -9 7
4 12 1 12 -9 0 -8 7 -18 15 -21 8 -4 15 -12 15 -20 0 -7 13 -20 30 -29 21 -11
27 -20 23 -32 -5 -12 -2 -15 10 -10 9 3 21 -1 29 -11 12 -16 11 -16 -6 -2 -14
10 -17 11 -12 2 4 -7 19 -17 33 -23 18 -7 23 -14 18 -29 -4 -11 -2 -20 4 -20
6 0 11 7 11 15 0 8 21 85 46 172 222 771 659 1256 1242 1379 108 22 309 29
427 14 1058 -133 2046 -1403 2249 -2890 41 -300 46 -760 12 -1015 -76 -552
-266 -1024 -543 -1351 -54 -63 -59 -72 -47 -89 10 -13 14 -15 14 -5 0 9 6 7
15 -7 8 -12 12 -29 8 -38 -5 -15 -3 -16 18 -5 21 12 22 11 12 -1 -10 -12 -9
-18 6 -29 12 -8 17 -20 13 -29 -5 -14 -4 -14 13 -1 17 14 18 13 13 -8 -4 -12
-3 -20 2 -17 4 3 25 -12 46 -32 22 -20 32 -33 24 -29 -8 4 -7 1 3 -7 10 -9 20
-24 21 -34 2 -10 7 -18 12 -18 12 -1 51 -24 40 -25 -5 0 2 -10 15 -23 13 -12
31 -35 39 -51 8 -15 16 -23 18 -17 2 6 8 11 13 11 4 0 5 -7 2 -17 -4 -11 -3
-14 5 -9 7 4 12 2 12 -4 0 -7 7 -10 18 -6 14 5 14 4 -2 -9 -19 -14 -18 -15 12
-26 31 -11 44 -29 20 -29 -6 0 -9 -3 -6 -6 32 -31 260 236 405 474 261 428
419 942 472 1532 14 149 14 573 0 737 -68 829 -352 1653 -800 2320 -486 725
-1145 1222 -1835 1387 -233 55 -531 71 -757 41z"/>
<path d="M9221 11639 c-196 -17 -472 -68 -479 -89 -2 -5 -7 -8 -12 -5 -5 3 -7
-3 -6 -12 2 -10 -3 -28 -11 -40 -20 -30 -20 -28 -5 -46 11 -13 10 -15 -10 -9
-21 5 -22 4 -8 -13 12 -15 12 -17 1 -10 -11 6 -13 4 -8 -9 4 -10 1 -19 -8 -23
-12 -4 -13 -9 -4 -19 9 -11 8 -14 -7 -15 -11 0 -14 -3 -6 -6 17 -7 15 -30 -4
-37 -9 -4 -14 -13 -10 -21 3 -8 1 -15 -4 -15 -6 0 -10 -5 -10 -11 0 -5 6 -7
13 -4 6 4 4 0 -5 -8 -10 -8 -15 -17 -11 -20 3 -4 1 -7 -6 -7 -7 0 -10 -4 -6
-10 3 -5 -1 -26 -10 -46 -17 -42 -18 -47 -6 -40 5 4 4 -5 -2 -19 -7 -14 -15
-25 -19 -25 -5 0 -8 -9 -8 -19 0 -11 -5 -23 -10 -26 -6 -4 -8 -11 -4 -16 3 -5
0 -16 -6 -24 -7 -8 -9 -15 -4 -15 5 0 2 -5 -6 -10 -12 -8 -12 -10 -1 -10 11 0
10 -4 -4 -20 -9 -10 -15 -26 -12 -34 4 -9 1 -18 -4 -22 -6 -3 -8 -15 -6 -26 4
-12 1 -18 -6 -15 -7 3 -13 -7 -14 -24 -1 -16 -1 -29 1 -29 1 0 36 11 77 25 41
14 133 41 204 60 792 208 1472 60 1857 -405 166 -200 264 -425 314 -725 26
-152 24 -458 -5 -644 -79 -519 -312 -1049 -674 -1534 -54 -73 -110 -144 -124
-159 l-25 -26 -53 24 c-29 14 -98 37 -152 51 -86 23 -118 26 -258 26 -179 1
-245 -10 -395 -67 -323 -121 -576 -403 -667 -741 -24 -90 -27 -117 -27 -275 0
-157 3 -185 27 -272 70 -262 233 -489 456 -636 107 -70 205 -114 340 -150 85
-22 116 -25 261 -25 147 0 176 3 265 26 107 29 250 93 343 154 82 54 222 193
280 276 173 252 236 552 176 843 -18 88 -51 190 -82 249 l-20 40 63 75 c227
274 463 643 607 950 439 931 486 1856 134 2575 -305 621 -883 1023 -1611 1120
-147 20 -444 27 -584 14z m574 -4860 c108 -40 207 -145 241 -255 19 -62 19
-185 0 -247 -57 -186 -258 -312 -448 -278 -271 47 -423 330 -308 574 49 104
161 195 275 224 65 16 169 9 240 -18z"/>
<path d="M4576 10284 c-141 -28 -290 -89 -413 -171 -77 -51 -203 -172 -261
-251 -45 -61 -49 -64 -82 -59 -453 69 -751 87 -1065 68 -582 -37 -1039 -152
-1480 -376 -497 -251 -862 -604 -1074 -1039 -139 -283 -201 -556 -201 -881 0
-444 139 -872 424 -1305 128 -194 324 -430 359 -430 12 0 16 4 11 13 -6 9 -5
9 8 0 12 -11 21 -10 48 4 29 14 79 23 132 24 11 0 15 6 11 16 -5 13 -3 14 12
6 11 -6 30 -7 46 -3 15 5 30 5 34 2 3 -4 3 0 0 8 -4 12 2 15 30 14 19 -1 35 2
35 8 0 5 5 6 10 3 6 -4 18 -1 27 7 10 8 14 8 10 1 -13 -21 9 -23 26 -2 12 14
22 17 35 11 15 -8 28 -8 50 -3 4 2 -2 7 -13 12 -15 7 -11 7 14 3 18 -3 31 -2
28 3 -3 5 7 8 21 7 15 -1 37 2 48 7 13 4 26 3 33 -4 8 -8 11 -8 11 1 0 7 9 12
20 12 12 0 20 7 21 18 0 10 3 12 6 5 3 -10 10 -10 25 -2 18 10 20 9 15 -5 -4
-9 -2 -16 3 -16 26 0 -3 35 -163 193 -96 95 -201 206 -234 247 -241 302 -382
592 -444 915 -21 107 -18 389 5 495 130 598 643 1049 1424 1251 419 108 926
130 1420 64 62 -9 118 -18 125 -21 8 -3 19 -38 26 -87 55 -367 306 -690 651
-836 529 -226 1144 2 1400 518 131 263 150 573 53 846 -134 372 -454 643 -841
710 -103 18 -293 18 -386 -1z m367 -701 c160 -75 245 -218 235 -397 -8 -146
-92 -272 -227 -339 -62 -30 -72 -32 -176 -32 -98 0 -116 3 -167 27 -67 31
-147 103 -182 162 -108 185 -52 433 124 546 121 78 269 90 393 33z"/>
<path d="M5045 7479 c-123 -10 -212 -23 -380 -56 -975 -192 -1973 -850 -2657
-1753 -692 -914 -986 -1960 -803 -2853 33 -162 104 -368 179 -522 310 -633
903 -1035 1661 -1126 287 -35 838 4 906 64 14 12 18 18 10 12 -12 -8 -13 -6
-6 10 4 11 8 28 9 38 0 9 4 17 9 17 5 0 6 7 3 16 -4 9 -1 23 5 30 6 7 8 18 4
24 -4 6 -1 9 7 8 8 -2 13 6 12 19 -1 13 2 23 6 23 4 0 7 8 6 17 0 10 4 17 10
16 7 -1 10 6 7 16 -3 10 0 22 6 25 6 4 11 18 11 32 0 13 4 24 10 24 5 0 6 7 3
17 -4 10 -2 14 4 10 5 -3 10 0 10 8 0 8 -4 12 -9 9 -11 -7 3 29 14 37 5 3 10
13 12 21 1 9 8 23 15 32 11 13 11 16 0 16 -9 0 -10 3 -4 8 12 8 13 22 2 40 -6
8 -4 12 5 10 7 -2 13 4 13 12 0 8 4 21 8 28 5 6 5 12 2 12 -4 0 3 13 13 28 16
21 18 32 10 46 -8 15 -8 17 2 11 10 -6 12 -4 7 8 -4 10 0 20 10 25 13 8 13 10
0 15 -8 3 -63 -8 -123 -24 -1146 -310 -2030 130 -2193 1092 -41 236 -37 481
10 749 121 690 527 1411 1114 1978 597 578 1285 936 2000 1044 135 20 524 17
644 -5 52 -10 96 -15 99 -12 3 3 11 0 19 -7 11 -9 13 -7 9 15 -3 18 1 30 12
36 9 5 17 18 18 28 0 10 4 30 7 46 4 15 10 39 13 54 4 21 7 24 15 12 6 -10 9
-7 9 14 0 15 5 27 11 27 7 0 8 5 3 13 -14 18 -11 47 6 57 8 5 11 10 6 10 -6 0
-1 7 10 16 10 8 13 13 7 9 -7 -3 -13 -1 -13 4 0 6 4 11 10 11 5 0 7 7 3 15 -3
9 3 25 12 35 11 12 13 20 7 20 -19 0 -14 20 6 21 11 0 12 2 4 6 -9 3 -7 10 9
24 12 10 17 19 11 19 -15 0 -16 26 -2 35 6 4 7 -1 3 -12 -7 -19 -5 -18 17 11
10 13 11 17 2 12 -9 -5 -12 1 -10 23 1 17 5 31 9 31 4 0 9 9 12 19 4 18 -7 23
-102 45 -257 60 -520 78 -806 55z"/>
<path d="M12084 6861 c3 -5 -2 -12 -11 -16 -10 -3 -19 -1 -21 4 -2 6 -8 11
-14 11 -6 0 -8 -7 -5 -14 4 -10 1 -13 -9 -9 -7 3 -22 2 -31 -2 -26 -11 -53
-13 -47 -3 9 14 -6 9 -23 -7 -10 -11 -19 -13 -27 -6 -8 7 -16 7 -22 1 -5 -5
-22 -11 -39 -14 -16 -3 -31 -9 -33 -14 -1 -5 -25 -7 -52 -4 -36 2 -54 -1 -66
-12 -8 -9 -20 -14 -25 -11 -5 4 -9 1 -9 -5 0 -7 -6 -8 -16 -2 -20 11 -56 4
-48 -9 3 -5 -2 -6 -11 -3 -9 4 -25 -2 -37 -12 -12 -11 -18 -13 -14 -6 4 7 1
12 -8 12 -9 0 -16 -4 -16 -10 0 -5 -5 -10 -11 -10 -5 0 -7 5 -3 11 4 7 -1 7
-16 -1 -14 -7 -20 -17 -16 -28 4 -9 -3 -6 -14 8 -11 14 -20 19 -20 11 0 -9 -7
-11 -21 -8 -15 4 -19 2 -15 -9 4 -12 2 -12 -14 -4 -11 6 -20 8 -20 5 0 -4 60
-68 133 -144 271 -281 449 -555 551 -850 63 -181 80 -282 80 -486 1 -194 -10
-271 -60 -422 -229 -683 -1033 -1147 -2069 -1192 -706 -31 -1410 123 -2060
449 -367 184 -649 384 -911 645 -262 260 -460 556 -565 840 -37 101 -56 126
-76 98 -9 -11 -13 -12 -13 -4 0 10 -3 11 -13 2 -10 -8 -17 -7 -25 1 -8 8 -12
8 -12 1 0 -5 -11 -9 -25 -8 -14 2 -25 -1 -25 -7 0 -6 -11 -8 -25 -6 -15 3 -31
-1 -42 -12 -16 -15 -19 -15 -31 -1 -8 9 -11 11 -8 4 8 -15 -5 -23 -41 -24 -15
-1 -44 -6 -63 -12 -19 -6 -42 -11 -50 -11 -8 -1 -14 -8 -12 -16 2 -12 0 -12
-11 2 -12 15 -15 15 -37 -3 -27 -20 -50 -25 -50 -9 0 5 8 7 18 4 14 -5 14 -4
3 4 -9 7 -21 7 -31 2 -11 -6 -21 -5 -27 1 -8 8 -13 7 -18 -2 -5 -7 -4 -10 2
-6 6 4 13 1 16 -7 4 -10 0 -12 -15 -8 -11 3 -24 -1 -28 -8 -7 -11 -12 -11 -23
-2 -28 23 -27 -15 2 -110 265 -882 1120 -1701 2226 -2135 836 -328 1719 -428
2535 -287 886 153 1612 601 1975 1219 310 527 361 1158 140 1761 -51 140 -181
400 -265 527 -124 190 -276 377 -307 377 -8 0 -12 -4 -9 -9z"/>
<path d="M4680 4673 c-304 -29 -588 -186 -764 -420 -155 -206 -226 -415 -226
-663 0 -419 224 -786 597 -975 121 -61 312 -115 409 -115 24 0 37 -5 41 -17
39 -112 131 -331 197 -468 474 -981 1204 -1672 2031 -1924 354 -108 744 -121
1090 -37 725 177 1306 757 1595 1593 29 83 47 149 41 152 -5 4 -13 19 -16 34
-5 17 -13 26 -20 23 -7 -2 -16 5 -19 17 -5 19 -8 20 -17 7 -9 -13 -10 -12 -5
2 3 10 1 20 -5 23 -5 4 -6 11 -3 17 4 6 2 8 -3 5 -6 -4 -19 5 -29 18 -22 29
-36 33 -28 7 5 -14 4 -14 -4 -2 -6 8 -8 18 -5 23 3 5 -11 24 -31 43 -20 18
-36 35 -36 38 0 9 -65 70 -72 68 -5 -1 -8 2 -8 6 0 14 -36 52 -49 52 -6 0 -11
5 -11 11 0 5 6 7 13 4 6 -4 0 5 -15 18 -15 14 -24 28 -21 31 12 12 -18 34 -40
28 -20 -5 -21 -4 -7 13 8 10 10 16 4 12 -11 -6 -29 19 -26 35 1 5 -1 7 -6 6
-15 -4 -53 24 -62 45 -10 27 -9 30 -50 -148 -176 -768 -579 -1303 -1117 -1486
-156 -53 -232 -64 -428 -63 -161 0 -193 3 -300 28 -725 169 -1415 844 -1803
1766 -93 221 -90 201 -39 237 62 45 181 169 233 244 185 262 245 594 164 903
-99 375 -403 679 -779 776 -129 34 -254 45 -371 33z m272 -721 c80 -39 159
-120 196 -199 35 -77 43 -205 17 -284 -85 -262 -383 -368 -613 -219 -107 69
-170 178 -179 309 -9 129 35 241 131 329 85 78 156 103 287 99 84 -2 103 -6
161 -35z"/>
</g>
</svg>
